<svg width="24" height="24" viewBox="0 0 24 24" fill="none" xmlns="http://www.w3.org/2000/svg">
<path opacity="0.5" fill-rule="evenodd" clip-rule="evenodd" d="M12 21C16.9706 21 21 16.9706 21 12C21 7.02944 16.9706 3 12 3C7.02944 3 3 7.02944 3 12C3 16.9706 7.02944 21 12 21ZM12 19C15.866 19 19 15.866 19 12C19 8.13401 15.866 5 12 5C8.13401 5 5 8.13401 5 12C5 15.866 8.13401 19 12 19Z" fill="#3086EE"/>
<circle cx="12" cy="12" r="2" fill="#3086EE"/>
<path fill-rule="evenodd" clip-rule="evenodd" d="M12.0001 12.0001C11.6096 11.6096 11.6096 10.9764 12.0001 10.5859L18.364 4.2219C18.7546 3.83138 19.3877 3.83138 19.7782 4.2219C20.1688 4.61242 20.1688 5.24559 19.7782 5.63611L13.4143 12.0001C13.0238 12.3906 12.3906 12.3906 12.0001 12.0001Z" fill="#3086EE"/>
</svg>
