<svg width="24" height="24" viewBox="0 0 24 24" fill="none" xmlns="http://www.w3.org/2000/svg">
<g opacity="0.5">
<path d="M0 12C0 11.4477 0.447715 11 1 11H2V13H1C0.447715 13 0 12.5523 0 12Z" fill="#3086EE"/>
<path d="M8 11H16V13H8V11Z" fill="#3086EE"/>
<path d="M23 11C23.5523 11 24 11.4477 24 12C24 12.5523 23.5523 13 23 13H22V11H23Z" fill="#3086EE"/>
</g>
<path d="M3 8C3 7.44772 3.44772 7 4 7C4.55228 7 5 7.44772 5 8V16C5 16.5523 4.55228 17 4 17C3.44772 17 3 16.5523 3 16V8Z" fill="#3086EE"/>
<path d="M7 7C6.44772 7 6 7.44772 6 8V16C6 16.5523 6.44772 17 7 17C7.55228 17 8 16.5523 8 16V8C8 7.44772 7.55228 7 7 7Z" fill="#3086EE"/>
<path d="M17 7C16.4477 7 16 7.44772 16 8V16C16 16.5523 16.4477 17 17 17C17.5523 17 18 16.5523 18 16V8C18 7.44772 17.5523 7 17 7Z" fill="#3086EE"/>
<path d="M20 7C19.4477 7 19 7.44772 19 8V16C19 16.5523 19.4477 17 20 17C20.5523 17 21 16.5523 21 16V8C21 7.44772 20.5523 7 20 7Z" fill="#3086EE"/>
</svg>
