<svg width="24" height="24" viewBox="0 0 24 24" fill="none" xmlns="http://www.w3.org/2000/svg">
<path opacity="0.5" d="M11.0005 2C11.0005 1.44772 11.4482 1 12.0005 1V1C12.5528 1 13.0005 1.44772 13.0005 2V3C13.0005 3.55228 12.5528 4 12.0005 4V4C11.4482 4 11.0005 3.55228 11.0005 3V2ZM11.0005 21C11.0005 20.4477 11.4482 20 12.0005 20V20C12.5528 20 13.0005 20.4477 13.0005 21V22C13.0005 22.5523 12.5528 23 12.0005 23V23C11.4482 23 11.0005 22.5523 11.0005 22V21ZM4.21508 5.63361C3.82553 5.24406 3.82481 4.61243 4.21298 4.22151V4.22151C4.60309 3.82863 5.23858 3.82711 5.63008 4.21861L6.33086 4.91939C6.72236 5.31089 6.72084 5.94638 6.32796 6.33649V6.33649C5.93704 6.72466 5.3054 6.72394 4.91586 6.33439L4.21508 5.63361ZM17.6451 19.0686C17.2555 18.6791 17.2548 18.0474 17.643 17.6565V17.6565C18.0331 17.2636 18.6686 17.2621 19.0601 17.6536L19.7609 18.3544C20.1524 18.7459 20.1508 19.3814 19.758 19.7715V19.7715C19.367 20.1597 18.7354 20.1589 18.3459 19.7694L17.6451 19.0686ZM18.3521 4.21406C18.7438 3.82696 19.3751 3.82976 19.7638 4.21984V4.21984C20.1538 4.61122 20.1529 5.24509 19.7613 5.63485L19.0476 6.34522C18.6568 6.73417 18.0233 6.7318 17.6334 6.34192V6.34192C17.2412 5.94977 17.2415 5.31175 17.6359 4.92192L18.3521 4.21406ZM4.91385 17.6467C5.30491 17.2611 5.93382 17.2634 6.32215 17.6517V17.6517C6.71307 18.0426 6.71233 18.6766 6.32049 19.0666L5.60757 19.7762C5.21678 20.1652 4.58368 20.1632 4.19381 19.7733V19.7733C3.80134 19.3809 3.80236 18.7426 4.19759 18.3529L4.91385 17.6467ZM21.9805 11C22.5328 11 22.9805 11.4477 22.9805 12V12C22.9805 12.5523 22.5328 13 21.9805 13H20.9805C20.4282 13 19.9805 12.5523 19.9805 12V12C19.9805 11.4477 20.4282 11 20.9805 11H21.9805ZM2.98047 11C3.53275 11 3.98047 11.4477 3.98047 12V12C3.98047 12.5523 3.53275 13 2.98047 13H1.98047C1.42818 13 0.980469 12.5523 0.980469 12V12C0.980469 11.4477 1.42818 11 1.98047 11H2.98047Z" fill="#3086EE"/>
<path d="M12 18C8.68 18 6 15.31 6 12C6 8.68 8.68 6 12 6C15.31 6 18 8.68 18 12C18 15.31 15.31 18 12 18Z" fill="#3086EE"/>
</svg>
