<svg width="24" height="24" viewBox="0 0 24 24" fill="none" xmlns="http://www.w3.org/2000/svg">
<path fill-rule="evenodd" clip-rule="evenodd" d="M3.43157 11.293C3.04104 11.6835 3.04104 12.3166 3.43157 12.7072L6.75927 16.0349C7.14979 16.4254 7.78296 16.4254 8.17348 16.0349C8.564 15.6443 8.564 15.0112 8.17348 14.6207L5.55289 12.0001L8.17348 9.37947C8.564 8.98895 8.564 8.35578 8.17348 7.96526C7.78296 7.57473 7.14979 7.57473 6.75927 7.96526L3.43157 11.293ZM17.2424 16.0349L20.5701 12.7072C20.9606 12.3166 20.9606 11.6835 20.5701 11.293L17.2424 7.96526C16.8519 7.57473 16.2187 7.57473 15.8282 7.96526C15.4376 8.35578 15.4376 8.98895 15.8282 9.37947L18.4488 12.0001L15.8282 14.6207C15.4376 15.0112 15.4376 15.6443 15.8282 16.0349C16.2187 16.4254 16.8519 16.4254 17.2424 16.0349Z" fill="#3086EE"/>
<path opacity="0.5" fill-rule="evenodd" clip-rule="evenodd" d="M13.8547 5.8665C14.3811 6.03365 14.6723 6.59587 14.5052 7.12225L11.2151 17.4835C11.0479 18.0099 10.4857 18.3011 9.95934 18.1339C9.43295 17.9668 9.14174 17.4046 9.30889 16.8782L12.599 6.51696C12.7661 5.99057 13.3284 5.69935 13.8547 5.8665Z" fill="#3086EE"/>
</svg>
