<svg width="24" height="24" viewBox="0 0 24 24" fill="none" xmlns="http://www.w3.org/2000/svg">
<path d="M9.04492 14.0692C9.04492 15.215 9.92422 16.1387 11.0167 16.1387H13.246C14.1964 16.1387 14.9691 15.3305 14.9691 14.3357C14.9691 13.2521 14.4984 12.8702 13.7967 12.6215L10.2173 11.378C9.51566 11.1294 9.04492 10.7474 9.04492 9.66385C9.04492 8.66909 9.81764 7.86084 10.768 7.86084H12.9973C14.0898 7.86084 14.9691 8.78455 14.9691 9.93031" stroke="#3086EE" stroke-width="2" stroke-linecap="round" stroke-linejoin="round"/>
<path d="M12 6.6709V17.3291" stroke="#3086EE" stroke-width="2" stroke-linecap="round" stroke-linejoin="round"/>
<path d="M11.999 20.8818C16.9043 20.8818 20.8809 16.9053 20.8809 12C20.8809 7.0947 16.9043 3.11816 11.999 3.11816C7.09372 3.11816 3.11719 7.0947 3.11719 12C3.11719 16.9053 7.09372 20.8818 11.999 20.8818Z" stroke="#3086EE" stroke-width="2" stroke-linecap="round" stroke-linejoin="round"/>
</svg>
