<svg width="24" height="24" viewBox="0 0 24 24" fill="none" xmlns="http://www.w3.org/2000/svg">
<path d="M4.45652 15.8324C4.26347 15.6322 4.21829 15.3317 4.34393 15.0836L4.9551 13.8766C6.40159 11.02 9.33153 9.21942 12.5335 9.21942H12.834C12.8559 8.7434 12.8842 8.26759 12.9189 7.79213L12.978 6.98132C13.026 6.32195 13.7613 5.95336 14.3184 6.30933C16.1459 7.4771 17.7347 8.98181 19 10.7432L19.3974 11.2964C19.5611 11.5242 19.5611 11.8311 19.3974 12.0589L19 12.6121C17.7347 14.3735 16.1459 15.8782 14.3184 17.046C13.7613 17.402 13.026 17.0334 12.978 16.374L12.9189 15.5632C12.8775 14.9954 12.8452 14.4271 12.822 13.8585C10.9489 13.8044 9.0782 14.1825 7.35893 14.976L5.20071 15.9721C4.94819 16.0886 4.64958 16.0326 4.45652 15.8324Z" fill="#3086EE"/>
</svg>
