<svg width="24" height="24" viewBox="0 0 24 24" fill="none" xmlns="http://www.w3.org/2000/svg">
<path fill-rule="evenodd" clip-rule="evenodd" d="M8 20C5.79086 20 4 18.2091 4 16V14C4 13.4477 4.44772 13 5 13H19C19.5523 13 20 13.4477 20 14V16C20 18.2091 18.2091 20 16 20H8ZM10 16C10 15.4477 9.55228 15 9 15C8.44772 15 8 15.4477 8 16V17C8 17.5523 8.44772 18 9 18C9.55228 18 10 17.5523 10 17V16ZM12 15C12.5523 15 13 15.4477 13 16V17C13 17.5523 12.5523 18 12 18C11.4477 18 11 17.5523 11 17V16C11 15.4477 11.4477 15 12 15ZM16 16C16 15.4477 15.5523 15 15 15C14.4477 15 14 15.4477 14 16V17C14 17.5523 14.4477 18 15 18C15.5523 18 16 17.5523 16 17V16Z" fill="#3086EE"/>
<path opacity="0.5" d="M7 9C7 8.24291 7.42067 7.58407 8.04103 7.24447C8.52548 6.97928 9 6.55228 9 6V6C9 5.44772 8.54533 4.98717 8.01012 5.12343C6.27976 5.56394 5 7.13252 5 9V10H4C3.44772 10 3 10.4477 3 11C3 11.5523 3.44772 12 4 12L20 12C20.5523 12 21 11.5523 21 11C21 10.4477 20.5523 10 20 10H19V9C19 7.13252 17.7202 5.56394 15.9899 5.12343C15.4547 4.98717 15 5.44772 15 6V6C15 6.55228 15.4745 6.97928 15.959 7.24447C16.5793 7.58407 17 8.24291 17 9V10L7 10V9Z" fill="#3086EE"/>
<path d="M9.5 6C9.5 5.44772 9.94772 5 10.5 5H13.5C14.0523 5 14.5 5.44772 14.5 6C14.5 6.55228 14.0523 7 13.5 7H10.5C9.94772 7 9.5 6.55228 9.5 6Z" fill="#3086EE"/>
</svg>
