<svg width="24" height="24" viewBox="0 0 24 24" fill="none" xmlns="http://www.w3.org/2000/svg">
<path opacity="0.5" fill-rule="evenodd" clip-rule="evenodd" d="M11.8694 4C8.29054 4 5.21896 6.60898 4.34131 10.2352C4.21139 10.772 3.67092 11.1019 3.13414 10.9719C2.59735 10.842 2.26752 10.3016 2.39743 9.76476C3.46835 5.33996 7.26921 2 11.8694 2C16.4695 2 20.2704 5.33996 21.3413 9.76476C21.4712 10.3016 21.1414 10.842 20.6046 10.9719C20.0678 11.1019 19.5273 10.772 19.3974 10.2352C18.5198 6.60898 15.4482 4 11.8694 4Z" fill="#3086EE"/>
<path d="M2.86914 13.6294L1.99953 16.5006L5.74034 14.499L2.86914 13.6294Z" stroke="#3086EE" stroke-width="2" stroke-linecap="round" stroke-linejoin="round"/>
<path d="M20.9297 10.3379L21.7086 7.44076L18.0326 9.55902L20.9297 10.3379Z" stroke="#3086EE" stroke-width="2" stroke-linecap="round" stroke-linejoin="round"/>
<path opacity="0.5" fill-rule="evenodd" clip-rule="evenodd" d="M3.13414 13.0283C3.67092 12.8984 4.21139 13.2282 4.34131 13.765C5.21896 17.3912 8.29054 20.0002 11.8694 20.0002C15.4482 20.0002 18.5198 17.3912 19.3974 13.765C19.5273 13.2282 20.0678 12.8984 20.6046 13.0283C21.1414 13.1582 21.4712 13.6987 21.3413 14.2355C20.2704 18.6603 16.4695 22.0002 11.8694 22.0002C7.26921 22.0002 3.46835 18.6603 2.39743 14.2355C2.26752 13.6987 2.59735 13.1582 3.13414 13.0283Z" fill="#3086EE"/>
</svg>
