<svg width="24" height="24" viewBox="0 0 24 24" fill="none" xmlns="http://www.w3.org/2000/svg">
<g clip-path="url(#clip0_219_17300)">
<path opacity="0.5" d="M22.4742 4.58457C23.3179 6.04583 22.8172 7.91433 21.3559 8.75799L18.3008 3.46631C19.762 2.62265 21.6305 3.12332 22.4742 4.58457Z" fill="#3086EE"/>
<path opacity="0.5" d="M15.8207 18.2634L13.4062 15.7663L9.26562 17.1489L13.6168 20.4291C14.0085 20.7244 14.5387 20.7569 14.9635 20.5116L15.5532 20.1712C16.2417 19.7737 16.3734 18.8349 15.8207 18.2634Z" fill="#3086EE"/>
<path fill-rule="evenodd" clip-rule="evenodd" d="M3.67757 14.1907L4.45134 15.5309C5.02759 16.529 6.22277 16.9889 7.31944 16.6346L12.7016 14.8957L8.43473 7.2894L4.15452 11.1562C3.29933 11.9287 3.10133 13.1926 3.67757 14.1907ZM9.95665 5.9145L14.6429 14.2684L20.6506 12.3274C21.3909 12.0882 21.7222 11.2273 21.3332 10.5535L16.4291 2.05925C16.0401 1.38547 15.1303 1.24064 14.5529 1.76219L9.95665 5.9145Z" fill="#3086EE"/>
</g>
<defs>
<clipPath id="clip0_219_17300">
<rect width="24" height="24" fill="white"/>
</clipPath>
</defs>
</svg>
