<svg width="24" height="24" viewBox="0 0 24 24" fill="none" xmlns="http://www.w3.org/2000/svg">
<g clip-path="url(#clip0_219_15732)">
<path d="M3.58212 12.0011C2.54539 12.0011 1.71441 11.0983 1.95062 10.0888C2.90236 6.02167 5.57773 4.99972 11.9997 5C18.4217 5.00028 21.0972 6.02245 22.0493 10.0897C22.2856 11.0992 21.4547 12.0019 20.4179 12.0018L17.2511 12.0017C16.2844 12.0017 15.5682 11.204 15.3637 10.2592C15.0589 8.85189 14.1728 8.50083 11.9999 8.50074C9.82699 8.50065 8.94086 8.85163 8.63624 10.2589C8.43172 11.2037 7.71561 12.0013 6.74891 12.0013L3.58212 12.0011Z" fill="#3086EE"/>
<path opacity="0.5" d="M15.5358 16.9989C15.9264 16.6084 15.9264 15.9753 15.5358 15.5847C15.1453 15.1942 14.5121 15.1942 14.1216 15.5847L12.9501 16.7563V13.5137C12.9501 12.9614 12.5024 12.5137 11.9501 12.5137C11.3978 12.5137 10.9501 12.9614 10.9501 13.5137L10.9501 16.6558L9.87898 15.5847C9.48846 15.1942 8.85529 15.1942 8.46477 15.5847C8.07424 15.9753 8.07424 16.6084 8.46477 16.9989L11.2932 19.8274C11.6837 20.2179 12.3169 20.2179 12.7074 19.8274L15.5358 16.9989Z" fill="#3086EE"/>
</g>
<defs>
<clipPath id="clip0_219_15732">
<rect width="24" height="24" fill="white"/>
</clipPath>
</defs>
</svg>
