<svg width="24" height="24" viewBox="0 0 24 24" fill="none" xmlns="http://www.w3.org/2000/svg">
<path opacity="0.5" d="M12 2C10.1435 2 8.36301 2.7375 7.05025 4.05025C5.7375 5.36301 5 7.14348 5 9C5 10.8565 5.7375 12.637 7.05025 13.9497C8.36301 15.2625 10.1435 16 12 16C13.8565 16 15.637 15.2625 16.9497 13.9497C18.2625 12.637 19 10.8565 19 9C19 7.14348 18.2625 5.36301 16.9497 4.05025C15.637 2.7375 13.8565 2 12 2V2Z" fill="#3086EE"/>
<rect x="8" y="15" width="8" height="2" rx="1" fill="#3086EE"/>
<path opacity="0.5" d="M10 20H14V20C14 21.1046 13.1046 22 12 22V22C10.8954 22 10 21.1046 10 20V20Z" fill="#3086EE"/>
<rect x="8" y="18" width="8" height="2" rx="1" fill="#3086EE"/>
</svg>
