<svg width="24" height="24" viewBox="0 0 24 24" fill="none" xmlns="http://www.w3.org/2000/svg">
<path d="M19.4891 16.4148C20.2221 17.1479 20.1714 18.3739 19.2905 18.9206C15.7416 21.1236 13.1272 19.9544 8.5864 15.4132C4.04556 10.872 2.87652 8.25736 5.07927 4.70814C5.62598 3.82726 6.85184 3.77647 7.58488 4.50958L9.82405 6.74894C10.5076 7.43253 10.45 8.50296 9.92657 9.31571C9.14692 10.5263 9.5253 11.4012 11.0617 12.9377C12.5981 14.4742 13.4729 14.8526 14.6834 14.0729C15.4961 13.5495 16.5664 13.4919 17.2499 14.1755L19.4891 16.4148Z" fill="#e85b79"/>
<path d="M21.4142 3.58579C21.8047 3.97631 21.8047 4.60948 21.4142 5L19.8284 6.58579L21.4142 8.1716C21.8047 8.5621 21.8047 9.1953 21.4142 9.5858C21.0237 9.9763 20.3905 9.9763 20 9.5858L18.4142 8L16.8284 9.5858C16.4379 9.9763 15.8047 9.9763 15.4142 9.5858C15.0237 9.1953 15.0237 8.5621 15.4142 8.1716L17 6.58579L15.4142 5C15.0237 4.60948 15.0237 3.97631 15.4142 3.58579C15.8047 3.19526 16.4379 3.19526 16.8284 3.58579L18.4142 5.17157L20 3.58579C20.3905 3.19526 21.0237 3.19526 21.4142 3.58579Z" fill="#e85b79"/>
</svg>
