<svg width="24" height="24" viewBox="0 0 24 24" fill="none" xmlns="http://www.w3.org/2000/svg">
<path opacity="0.5" fill-rule="evenodd" clip-rule="evenodd" d="M11.7 2C11.3134 2 11 2.3134 11 2.7V9H9V2.7C9 1.20883 10.2088 0 11.7 0H13.3C14.7912 0 16 1.20883 16 2.7V9H14V2.7C14 2.3134 13.6866 2 13.3 2H11.7Z" fill="#06AB78"/>
<rect opacity="0.5" x="9" y="21" width="2" height="2" rx="1" fill="#06AB78"/>
<rect opacity="0.5" x="14" y="21" width="2" height="2" rx="1" fill="#06AB78"/>
<path fill-rule="evenodd" clip-rule="evenodd" d="M8 7C7.44772 7 7 7.44771 7 8V11.5H18V8C18 7.44772 17.5523 7 17 7H8ZM7 16.5V12.5H18V16.5H7ZM7 17.5V21C7 21.5523 7.44771 22 8 22H17C17.5523 22 18 21.5523 18 21V17.5H7Z" fill="#06AB78"/>
</svg>
