<svg width="24" height="24" viewBox="0 0 24 24" fill="none" xmlns="http://www.w3.org/2000/svg">
<g opacity="0.5">
<path d="M15.9961 17.0112C15.4438 17.0112 14.9961 16.5635 14.9961 16.0112L14.9961 7.76123C14.9961 7.20895 15.4438 6.76123 15.9961 6.76123C16.5484 6.76123 16.9961 7.20895 16.9961 7.76123V16.0112C16.9961 16.5635 16.5484 17.0112 15.9961 17.0112Z" fill="#06AB78"/>
<path d="M7.99609 17.0112C8.54838 17.0112 8.99609 16.5635 8.99609 16.0112L8.99609 7.76123C8.99609 7.20895 8.54838 6.76123 7.99609 6.76123C7.44381 6.76123 6.99609 7.20895 6.99609 7.76123V16.0112C6.99609 16.5635 7.44381 17.0112 7.99609 17.0112Z" fill="#06AB78"/>
</g>
<path d="M12.9961 18.3678C12.9961 18.9201 12.5484 19.3678 11.9961 19.3678C11.4438 19.3678 10.9961 18.9201 10.9961 18.3678L10.9961 5.40479C10.9961 4.8525 11.4438 4.40479 11.9961 4.40479C12.5484 4.40479 12.9961 4.8525 12.9961 5.40479L12.9961 18.3678Z" fill="#06AB78"/>
<path d="M4.99609 13.4488C4.99609 14.001 4.54838 14.4488 3.99609 14.4488C3.44381 14.4488 2.99609 14.001 2.99609 13.4488V10.3238C2.99609 9.7715 3.44381 9.32378 3.99609 9.32378C4.54838 9.32378 4.99609 9.7715 4.99609 10.3238V13.4488Z" fill="#06AB78"/>
<path d="M19.9961 14.4488C19.4438 14.4488 18.9961 14.001 18.9961 13.4488V10.3238C18.9961 9.7715 19.4438 9.32378 19.9961 9.32378C20.5484 9.32378 20.9961 9.7715 20.9961 10.3238V13.4488C20.9961 14.001 20.5484 14.4488 19.9961 14.4488Z" fill="#06AB78"/>
</svg>
