<svg width="24" height="24" viewBox="0 0 24 24" fill="none" xmlns="http://www.w3.org/2000/svg">
<circle opacity="0.5" cx="17" cy="9" r="2" fill="#06AB78"/>
<circle opacity="0.5" cx="9" cy="8" r="3" fill="#06AB78"/>
<path d="M3 16.8016C3.37338 13.7294 4.82589 13 9 13C13.1741 13 14.6266 13.7294 15 16.8016C13.3926 18.1711 11.2948 19 9 19C6.70517 19 4.60741 18.1711 3 16.8016Z" fill="#06AB78"/>
<path d="M17.0384 16.9999C18.5531 16.9906 19.9371 16.4397 20.9996 15.5344C20.7507 13.4862 19.7823 13 16.9996 13C16.4925 13 16.0456 13.0161 15.6523 13.055C16.467 14.0278 16.8272 15.2621 16.985 16.5603L17.0384 16.9999Z" fill="#06AB78"/>
</svg>
