<svg width="24" height="24" viewBox="0 0 24 24" fill="none" xmlns="http://www.w3.org/2000/svg">
<path d="M12.1302 10.6766L14.9385 7.86823L16.3528 9.28244L13.5444 12.0908C15.3834 13.7045 16.4023 13.4755 18.4741 11.4038C20.8033 9.07455 20.8033 8.07612 18.4741 5.74691C16.1449 3.4177 15.1464 3.4177 12.8172 5.74691C10.7455 7.81865 10.5165 8.83757 12.1302 10.6766Z" fill="#06AB78"/>
<path opacity="0.5" d="M5.74691 12.8182C3.4177 15.1474 3.4177 16.1458 5.74691 18.4751C8.07612 20.8043 9.07455 20.8043 11.4038 18.4751C13.4755 16.4033 13.7045 15.3844 12.0908 13.5454L9.28244 16.3537L7.86823 14.9395L10.6766 12.1312C8.83756 10.5174 7.81865 10.7464 5.74691 12.8182Z" fill="#06AB78"/>
</svg>
