<svg width="24" height="24" viewBox="0 0 24 24" fill="none" xmlns="http://www.w3.org/2000/svg">
<path fill-rule="evenodd" clip-rule="evenodd" d="M3 12C3 4.5885 4.5885 3 12 3C19.4115 3 21 4.5885 21 12C21 19.4115 19.4115 21 12 21C4.5885 21 3 19.4115 3 12ZM12 7C11.4477 7 11 7.44772 11 8V16C11 16.5523 11.4477 17 12 17C12.5523 17 13 16.5523 13 16V8C13 7.44772 12.5523 7 12 7ZM16 11C15.4477 11 15 11.4477 15 12V16C15 16.5523 15.4477 17 16 17C16.5523 17 17 16.5523 17 16V12C17 11.4477 16.5523 11 16 11ZM7 14C7 13.4477 7.44772 13 8 13C8.55228 13 9 13.4477 9 14V16C9 16.5523 8.55228 17 8 17C7.44772 17 7 16.5523 7 16V14Z" fill="#06AB78"/>
</svg>
