<svg width="24" height="24" viewBox="0 0 24 24" fill="none" xmlns="http://www.w3.org/2000/svg">
<path d="M15.3194 17.8397C15.7167 18.2233 15.7277 18.8564 15.3441 19.2537L12.5654 22.131C12.1818 22.5283 11.5487 22.5394 11.1515 22.1557L8.27409 19.3771C7.87681 18.9934 7.86576 18.3604 8.24941 17.9631C8.63306 17.5658 9.26613 17.5548 9.66341 17.9384L10.753 18.9907L10.6982 15.849C10.6886 15.2968 11.1284 14.8413 11.6806 14.8317C12.2328 14.822 12.6883 15.2619 12.6979 15.8141L12.7545 19.0562L13.9054 17.8644C14.2891 17.4671 14.9221 17.456 15.3194 17.8397Z" fill="#06AB78"/>
<path d="M8.27559 6.16067C7.87831 5.77702 7.86726 5.14395 8.25091 4.74667L11.0295 1.86931C11.4132 1.47203 12.0463 1.46098 12.4435 1.84463L15.3209 4.62326C15.7182 5.00691 15.7292 5.63998 15.3456 6.03726C14.9619 6.43454 14.3289 6.44559 13.9316 6.06194L12.8419 5.00969L12.8968 8.15138C12.9064 8.70358 12.4666 9.15904 11.9144 9.16868C11.3622 9.17832 10.9067 8.73849 10.8971 8.18629L10.8405 4.94418L9.68959 6.13598C9.30594 6.53326 8.67287 6.54431 8.27559 6.16067Z" fill="#06AB78"/>
<g opacity="0.5">
<path d="M18.2036 15.5476C18.6008 15.9313 19.2339 15.9202 19.6175 15.523L22.3962 12.6456C22.7798 12.2483 22.7688 11.6153 22.3715 11.2316L19.4941 8.45297C19.0969 8.06932 18.4638 8.08037 18.0801 8.47765C17.6965 8.87493 17.7075 9.508 18.1048 9.89165L19.1945 10.9439L16.0528 10.9987C15.5006 11.0084 15.0607 11.4638 15.0704 12.016C15.08 12.5682 15.5355 13.0081 16.0877 12.9984L19.3298 12.9418L18.1789 14.1336C17.7952 14.5309 17.8063 15.164 18.2036 15.5476Z" fill="#06AB78"/>
<path d="M5.79556 8.45205C5.39828 8.0684 4.76521 8.07945 4.38156 8.47673L1.60293 11.3541C1.21928 11.7514 1.23033 12.3844 1.62761 12.7681L4.50497 15.5467C4.90225 15.9304 5.53532 15.9193 5.91897 15.522C6.30261 15.1248 6.29156 14.4917 5.89428 14.108L4.80465 13.0558L7.94634 13.001C8.49854 12.9913 8.93837 12.5359 8.92873 11.9837C8.91909 11.4315 8.46363 10.9916 7.91143 11.0013L4.66933 11.0578L5.82024 9.86605C6.20389 9.46877 6.19284 8.8357 5.79556 8.45205Z" fill="#06AB78"/>
</g>
</svg>
