<svg width="24" height="24" viewBox="0 0 24 24" fill="none" xmlns="http://www.w3.org/2000/svg">
<rect opacity="0.5" x="7" y="2" width="12" height="20" rx="2" fill="#06AB78"/>
<path d="M7.48528 8.29289C7.09475 7.90237 6.46159 7.90237 6.07106 8.29289C5.68054 8.68342 5.68054 9.31658 6.07106 9.70711L7.2426 10.8786H4C3.44772 10.8786 3 11.3264 3 11.8786C3 12.4309 3.44772 12.8786 4 12.8786L7.14217 12.8786L6.07106 13.9497C5.68054 14.3403 5.68054 14.9734 6.07106 15.364C6.46159 15.7545 7.09475 15.7545 7.48528 15.364L10.3137 12.5355C10.7042 12.145 10.7042 11.5118 10.3137 11.1213L7.48528 8.29289Z" fill="#06AB78"/>
<circle cx="13" cy="19" r="1" fill="#06AB78"/>
</svg>
