<svg width="24" height="24" viewBox="0 0 24 24" fill="none" xmlns="http://www.w3.org/2000/svg">
<path fill-rule="evenodd" clip-rule="evenodd" d="M12 19C15.866 19 19 15.866 19 12C19 8.13401 15.866 5 12 5C8.13401 5 5 8.13401 5 12C5 15.866 8.13401 19 12 19ZM12 21C16.9706 21 21 16.9706 21 12C21 7.02944 16.9706 3 12 3C7.02944 3 3 7.02944 3 12C3 16.9706 7.02944 21 12 21Z" fill="#06AB78"/>
<g opacity="0.5">
<path d="M12.9648 10.9377C12.9648 10.3855 12.5171 9.93774 11.9648 9.93774C11.4126 9.93774 10.9648 10.3855 10.9648 10.9377L10.9648 16.2456C10.9648 16.7979 11.4126 17.2456 11.9648 17.2456C12.5171 17.2456 12.9648 16.7979 12.9648 16.2456V10.9377Z" fill="#06AB78"/>
<path d="M12.9648 7.75488C12.9648 7.2026 12.5171 6.75488 11.9648 6.75488C11.4126 6.75488 10.9648 7.2026 10.9648 7.75488V7.9596C10.9648 8.51188 11.4126 8.9596 11.9648 8.9596C12.5171 8.9596 12.9648 8.51188 12.9648 7.9596V7.75488Z" fill="#06AB78"/>
</g>
</svg>
