<svg width="24" height="24" viewBox="0 0 24 24" fill="none" xmlns="http://www.w3.org/2000/svg">
<path d="M4 6.006V18H2V8.2089L0 8.73863V6.66966L2.5 6H4V6.006Z" fill="#06AB78"/>
<path opacity="0.5" d="M10.0159 6.01997C12.2151 6.01997 14 7.68719 14 9.76373C14 10.6123 13.6919 11.401 13.1713 12.0399L13.012 12.2196L9.50598 16.0033H13.7131V18H6.27623V16.4426L11.3971 10.9018C11.6733 10.5923 11.8539 10.193 11.8539 9.75374C11.8539 8.78536 11.0146 8.00666 9.99469 8.00666C9.01726 8.00666 8.20983 8.70549 8.13546 9.60399L8.12483 9.74376H6C6 7.66722 7.77424 6 9.98406 6L10.0159 6.01997Z" fill="#06AB78"/>
<path d="M22.7527 6.03909L22.7419 7.99349L20.043 10.8078C21.7527 11.228 23 12.6547 23 14.3355C23 16.3583 21.1935 18 18.9677 18C17 18 15.3656 16.7199 15 15.0293L17.1075 14.6482C17.2688 15.43 18.0323 16.0261 18.9548 16.0261C19.9871 16.0261 20.8366 15.2541 20.8366 14.316C20.8366 13.3681 19.9871 12.6059 18.9548 12.6059C18.643 12.6059 18.3527 12.6645 18.0946 12.7915L16.686 11.2769L19.8581 7.9544H15.1806V6H22.7075L22.7527 6.03909Z" fill="#06AB78"/>
</svg>
