<svg width="24" height="24" viewBox="0 0 24 24" fill="none" xmlns="http://www.w3.org/2000/svg">
<g opacity="0.5">
<path d="M11 12.4142C11 11.5087 11.3597 10.6403 12 10C12.6403 9.35971 13 8.49129 13 7.58579V6C13 5.44772 13.4477 5 14 5H16C16.5523 5 17 5.44772 17 6V7.58579C17 8.49129 17.3597 9.35971 18 10C18.6403 10.6403 19 11.5087 19 12.4142V20C19 20.5523 18.5523 21 18 21H12C11.4477 21 11 20.5523 11 20V12.4142Z" fill="#06AB78"/>
<path d="M13 3C13 2.44772 13.4477 2 14 2H16C16.5523 2 17 2.44772 17 3C17 3.55228 16.5523 4 16 4H14C13.4477 4 13 3.55228 13 3Z" fill="#06AB78"/>
</g>
<path d="M7 3C7 2.44772 7.44772 2 8 2H10C10.5523 2 11 2.44772 11 3C11 3.55228 10.5523 4 10 4H8C7.44772 4 7 3.55228 7 3Z" fill="#06AB78"/>
<path d="M6 10C5.35971 10.6403 5 11.5087 5 12.4142V13H9V19H5V20C5 20.5523 5.44772 21 6 21H12C12.5523 21 13 20.5523 13 20V12.4142C13 11.5087 12.6403 10.6403 12 10C11.3597 9.35971 11 8.49129 11 7.58579V6C11 5.44772 10.5523 5 10 5H8C7.44772 5 7 5.44772 7 6V7.58579C7 8.49129 6.64029 9.35971 6 10Z" fill="#06AB78"/>
</svg>
