<svg width="24" height="24" viewBox="0 0 24 24" fill="none" xmlns="http://www.w3.org/2000/svg">
<path fill-rule="evenodd" clip-rule="evenodd" d="M12 12C6.43452 12 4.49785 12.9725 4 17.0688C6.14321 18.8949 8.94023 20 12 20V12Z" fill="#06AB78"/>
<g opacity="0.5">
<path d="M12 10C13.6569 10 15 8.65685 15 7C15 5.34315 13.6569 4 12 4C10.3431 4 9 5.34315 9 7C9 8.65685 10.3431 10 12 10Z" fill="#06AB78"/>
<path d="M20.6961 14.7179C21.0926 14.3334 21.1024 13.7003 20.7179 13.3039C20.3334 12.9074 19.7003 12.8976 19.3039 13.2821L15.875 16.607L14.6961 15.4639C14.2997 15.0794 13.6666 15.0892 13.2821 15.4857C12.8976 15.8822 12.9074 16.5152 13.3039 16.8997L15.1789 18.7179C15.5667 19.094 16.1833 19.094 16.5711 18.7179L20.6961 14.7179Z" fill="#06AB78"/>
</g>
</svg>
