<svg width="24" height="24" viewBox="0 0 24 24" fill="none" xmlns="http://www.w3.org/2000/svg">
<path opacity="0.5" d="M9 4C7.34315 4 6 5.34315 6 7C6 8.65685 7.34315 10 9 10V4Z" fill="#06AB78"/>
<path opacity="0.5" d="M15 4C16.6569 4 18 5.34315 18 7C18 8.65685 16.6569 10 15 10V4Z" fill="#06AB78"/>
<path d="M9 12C3.43452 12 1.49785 12.9725 1 17.0688C3.14321 18.8949 5.94023 20 9 20V12Z" fill="#06AB78"/>
<path d="M15 12C20.5655 12 22.5022 12.9725 23 17.0688C20.8568 18.8949 18.0598 20 15 20V12Z" fill="#06AB78"/>
<path opacity="0.5" fill-rule="evenodd" clip-rule="evenodd" d="M12 2C12.5523 2 13 2.44772 13 3L13 21C13 21.5523 12.5523 22 12 22C11.4477 22 11 21.5523 11 21L11 3C11 2.44772 11.4477 2 12 2Z" fill="#06AB78"/>
</svg>
