<svg width="24" height="24" viewBox="0 0 24 24" fill="none" xmlns="http://www.w3.org/2000/svg">
<path opacity="0.5" fill-rule="evenodd" clip-rule="evenodd" d="M5 16C5 15.4477 5.44772 15 6 15L18 15C18.5523 15 19 15.4477 19 16C19 16.5523 18.5523 17 18 17L6 17C5.44772 17 5 16.5523 5 16Z" fill="#012635"/>
<path fill-rule="evenodd" clip-rule="evenodd" d="M2 11.5C2 9.567 3.567 8 5.5 8C7.433 8 9 9.567 9 11.5C9 13.433 7.433 15 5.5 15C3.567 15 2 13.433 2 11.5ZM5.5 6C2.46243 6 0 8.46243 0 11.5C0 14.5376 2.46243 17 5.5 17C8.53757 17 11 14.5376 11 11.5C11 8.46243 8.53757 6 5.5 6ZM15 11.5C15 9.567 16.567 8 18.5 8C20.433 8 22 9.567 22 11.5C22 13.433 20.433 15 18.5 15C16.567 15 15 13.433 15 11.5ZM18.5 6C15.4624 6 13 8.46243 13 11.5C13 14.5376 15.4624 17 18.5 17C21.5376 17 24 14.5376 24 11.5C24 8.46243 21.5376 6 18.5 6Z" fill="#012635"/>
</svg>
