<svg width="24" height="24" viewBox="0 0 24 24" fill="none" xmlns="http://www.w3.org/2000/svg">
<path opacity="0.5" d="M18.364 18.364C19.9926 16.7353 21 14.4853 21 12C21 7.02944 16.9706 3 12 3C7.02944 3 3 7.02944 3 12C3 14.4853 4.00736 16.7353 5.63604 18.364L7.05025 16.9497C5.7835 15.683 5 13.933 5 12C5 8.13401 8.13401 5 12 5C15.866 5 19 8.13401 19 12C19 13.933 18.2165 15.683 16.9497 16.9497L18.364 18.364Z" fill="#012635"/>
<path d="M13.9323 11.4818C13.9764 11.647 14 11.8206 14 11.9998C14 13.1043 13.1046 13.9998 12 13.9998C10.8954 13.9998 10 13.1043 10 11.9998C10 10.8952 10.8954 9.99976 12 9.99976C12.1792 9.99976 12.3529 10.0233 12.5181 10.0675L18.364 4.2216C18.7546 3.83108 19.3877 3.83108 19.7782 4.2216C20.1688 4.61213 20.1688 5.24529 19.7782 5.63582L13.9323 11.4818Z" fill="#012635"/>
</svg>
