<svg width="24" height="24" viewBox="0 0 24 24" fill="none" xmlns="http://www.w3.org/2000/svg">
<path opacity="0.5" d="M3 16C3 11.059 4.059 10 9 10H15C19.941 10 21 11.059 21 16C21 20.941 19.941 22 15 22H9C4.059 22 3 20.941 3 16Z" fill="#012635"/>
<rect x="11" y="14" width="2" height="4" rx="1" fill="#012635"/>
<path d="M12 2C8.68629 2 6 4.68629 6 8V10.2378C6.56259 10.1148 7.2241 10.0464 8 10.0172V8C8 5.79086 9.79086 4 12 4C14.2091 4 16 5.79086 16 8V10.0172C16.7759 10.0464 17.4374 10.1148 18 10.2378V8C18 4.68629 15.3137 2 12 2Z" fill="#012635"/>
</svg>
