<svg width="24" height="24" viewBox="0 0 24 24" fill="none" xmlns="http://www.w3.org/2000/svg">
<path fill-rule="evenodd" clip-rule="evenodd" d="M3.11775 11.5989C2.96075 11.8483 2.96075 12.1509 3.11775 12.4003C5.00975 15.4003 8.50475 18 11.9998 18C15.4948 18 18.9897 15.4003 20.8818 12.4011C21.0387 12.1517 21.0387 11.8491 20.8818 11.5997C18.9897 8.59971 15.4948 6 11.9998 6C8.50475 6 5.00975 8.59971 3.11775 11.5989ZM13.7699 13.7695C14.7472 12.7923 14.7472 11.2078 13.7699 10.2306C12.7927 9.25331 11.2082 9.25331 10.231 10.2306C9.25373 11.2078 9.25373 12.7923 10.231 13.7695C11.2082 14.7468 12.7927 14.7468 13.7699 13.7695Z" fill="#012635"/>
</svg>
