<svg width="24" height="24" viewBox="0 0 24 24" fill="none" xmlns="http://www.w3.org/2000/svg">
<path d="M18.9944 10.3609C19.5467 10.3609 19.9944 9.91323 19.9944 9.36095C19.9944 8.80866 19.5467 8.36095 18.9944 8.36095L17.3376 8.36095L19.6304 6.06808C20.021 5.67756 20.021 5.04439 19.6304 4.65387C19.2399 4.26335 18.6067 4.26335 18.2162 4.65387L15.9944 6.87572L15.9944 5.36095C15.9944 4.80866 15.5467 4.36095 14.9944 4.36095C14.4421 4.36095 13.9944 4.80866 13.9944 5.36095L13.9944 9.36095C13.9944 9.91323 14.4421 10.3609 14.9944 10.3609L18.9944 10.3609Z" fill="#012635"/>
<path opacity="0.5" fill-rule="evenodd" clip-rule="evenodd" d="M6.96289 6.2251C6.41061 6.2251 5.96289 6.67281 5.96289 7.2251V17.2997C5.96289 17.852 6.41061 18.2997 6.96289 18.2997H17.0375C17.5898 18.2997 18.0375 17.852 18.0375 17.2997V12.426C18.0375 11.8737 18.4852 11.426 19.0375 11.426C19.5898 11.426 20.0375 11.8737 20.0375 12.426V17.2997C20.0375 18.9566 18.6944 20.2997 17.0375 20.2997H6.96289C5.30604 20.2997 3.96289 18.9566 3.96289 17.2997V7.2251C3.96289 5.56824 5.30604 4.2251 6.96289 4.2251H11.6348C12.1871 4.2251 12.6348 4.67281 12.6348 5.2251C12.6348 5.77738 12.1871 6.2251 11.6348 6.2251H6.96289Z" fill="#012635"/>
</svg>
