<svg width="24" height="24" viewBox="0 0 24 24" fill="none" xmlns="http://www.w3.org/2000/svg">
<path fill-rule="evenodd" clip-rule="evenodd" d="M12 4C5.412 4 4 5.412 4 12C4 18.588 5.412 20 12 20C18.588 20 20 18.588 20 12C20 5.412 18.588 4 12 4ZM16.7372 9.67573C17.1104 9.26861 17.0828 8.63604 16.6757 8.26285C16.2686 7.88966 15.636 7.91716 15.2629 8.32428L10.5 13.5201L8.73716 11.597C8.36397 11.1899 7.7314 11.1624 7.32428 11.5356C6.91716 11.9088 6.88966 12.5413 7.26285 12.9485L9.76285 15.6757C9.95226 15.8824 10.2197 16 10.5 16C10.7803 16 11.0478 15.8824 11.2372 15.6757L16.7372 9.67573Z" fill="#012635"/>
</svg>
