<svg width="24" height="24" viewBox="0 0 24 24" fill="none" xmlns="http://www.w3.org/2000/svg">
<path opacity="0.5" d="M5.91374 10.291C6.48628 10.1918 7.03081 10.5756 7.12998 11.1481C7.5292 13.453 9.54062 15.206 11.9594 15.206C14.3781 15.206 16.3896 13.453 16.7888 11.1481C16.8879 10.5756 17.4325 10.1918 18.005 10.291C18.5775 10.3902 18.9613 10.9347 18.8621 11.5072C18.3502 14.4626 15.9885 16.7833 13.012 17.2317V19.3477H13.8766C14.4577 19.3477 14.9287 19.8187 14.9287 20.3998C14.9287 20.9808 14.4577 21.4519 13.8766 21.4519H10.0427C9.46159 21.4519 8.99054 20.9808 8.99054 20.3998C8.99054 19.8187 9.46159 19.3477 10.0427 19.3477H10.9078V17.2319C7.93076 16.7839 5.56856 14.4629 5.05662 11.5072C4.95746 10.9347 5.3412 10.3902 5.91374 10.291Z" fill="#012635"/>
<rect x="8.99219" y="3.19922" width="5.93797" height="10.0821" rx="2.96898" fill="#012635"/>
</svg>
