<svg width="24" height="24" viewBox="0 0 24 24" fill="none" xmlns="http://www.w3.org/2000/svg">
<path d="M19.4891 16.4148C20.2221 17.1479 20.1714 18.3739 19.2905 18.9206C15.7416 21.1236 13.1272 19.9544 8.5864 15.4132C4.04556 10.872 2.87652 8.25736 5.07927 4.70814C5.62598 3.82726 6.85184 3.77647 7.58488 4.50958L9.82405 6.74894C10.5076 7.43253 10.45 8.50296 9.92657 9.31571C9.14692 10.5263 9.5253 11.4012 11.0617 12.9377C12.5981 14.4742 13.4729 14.8526 14.6834 14.0729C15.4961 13.5495 16.5664 13.4919 17.2499 14.1755L19.4891 16.4148Z" fill="#012635"/>
<path opacity="0.5" d="M17.7079 3.46428C17.3174 3.07376 16.6842 3.07376 16.2937 3.46428C15.9032 3.8548 15.9032 4.48797 16.2937 4.87849L17.4653 6.05003H14.2227C13.6704 6.05003 13.2227 6.49775 13.2227 7.05003C13.2227 7.60231 13.6704 8.05003 14.2227 8.05003L17.3648 8.05003L16.2937 9.12113C15.9032 9.51166 15.9032 10.1448 16.2937 10.5353C16.6842 10.9259 17.3174 10.9259 17.7079 10.5353L20.5364 7.70692C20.9269 7.3164 20.9269 6.68323 20.5364 6.29271L17.7079 3.46428Z" fill="#012635"/>
</svg>
