<svg width="24" height="24" viewBox="0 0 24 24" fill="none" xmlns="http://www.w3.org/2000/svg">
<path opacity="0.5" fill-rule="evenodd" clip-rule="evenodd" d="M7 3C4.79086 3 3 4.79086 3 7V17C3 19.2091 4.79086 21 7 21H17C19.2091 21 21 19.2091 21 17V7C21 4.79086 19.2091 3 17 3H7ZM7 8C7 7.44772 7.44772 7 8 7C8.55228 7 9 7.44772 9 8V16C9 16.5523 8.55228 17 8 17C7.44772 17 7 16.5523 7 16V8ZM11 8C11 7.44772 11.4477 7 12 7C12.5523 7 13 7.44772 13 8V16C13 16.5523 12.5523 17 12 17C11.4477 17 11 16.5523 11 16V8ZM16 7C15.4477 7 15 7.44772 15 8V16C15 16.5523 15.4477 17 16 17C16.5523 17 17 16.5523 17 16V8C17 7.44772 16.5523 7 16 7Z" fill="#012635"/>
<rect x="7" y="11" width="2" height="6" rx="1" fill="#012635"/>
<rect x="15" y="15" width="2" height="2" rx="1" fill="#012635"/>
<rect x="11" y="7" width="2" height="10" rx="1" fill="#012635"/>
</svg>
