<svg width="24" height="24" viewBox="0 0 24 24" fill="none" xmlns="http://www.w3.org/2000/svg">
<path fill-rule="evenodd" clip-rule="evenodd" d="M11.0005 3.60254C11.0005 3.05025 11.4482 2.60254 12.0005 2.60254C17.5027 2.60254 22.0005 7.10025 22.0005 12.6025C22.0005 18.1048 17.5027 22.6025 12.0005 22.6025C8.73695 22.6025 5.84117 21.0139 4.01761 18.5921C3.6854 18.1509 3.77375 17.5239 4.21494 17.1917C4.65614 16.8595 5.28311 16.9478 5.61532 17.389C7.08376 19.3392 9.40198 20.6025 12.0005 20.6025C16.3982 20.6025 20.0005 17.0003 20.0005 12.6025C20.0005 8.20482 16.3982 4.60254 12.0005 4.60254C11.4482 4.60254 11.0005 4.15482 11.0005 3.60254Z" fill="#012635"/>
<g opacity="0.5">
<path d="M11.8787 4.60345C11.919 4.60284 11.9595 4.60254 12 4.60254C12.5523 4.60254 13 4.15482 13 3.60254C13 3.05025 12.5523 2.60254 12 2.60254C11.9494 2.60254 11.899 2.60292 11.8486 2.60368C11.2963 2.61199 10.8554 3.06639 10.8637 3.61861C10.872 4.17084 11.3264 4.61176 11.8787 4.60345Z" fill="#012635"/>
<path d="M9.05515 5.16769C9.56801 4.96276 9.81764 4.38089 9.61271 3.86803C9.40779 3.35517 8.82591 3.10553 8.31305 3.31046C8.21946 3.34786 8.12656 3.38663 8.03437 3.42675C7.52797 3.64714 7.29611 4.23633 7.51651 4.74273C7.7369 5.24913 8.32609 5.48099 8.83249 5.2606C8.90616 5.22854 8.98038 5.19756 9.05515 5.16769Z" fill="#012635"/>
<path d="M6.43703 6.8685C6.83332 6.48383 6.84275 5.85074 6.45809 5.45444C6.07342 5.05815 5.44033 5.04872 5.04403 5.43338C4.97191 5.50338 4.90084 5.57445 4.83084 5.64657C4.44618 6.04287 4.45561 6.67596 4.8519 7.06063C5.2482 7.44529 5.8813 7.43586 6.26596 7.03957C6.32213 6.9817 6.37916 6.92467 6.43703 6.8685Z" fill="#012635"/>
<path d="M4.65806 9.43503C4.87845 8.92862 4.6466 8.33944 4.14019 8.11904C3.63379 7.89865 3.0446 8.13051 2.82421 8.63691C2.78409 8.72909 2.74532 8.822 2.70792 8.91559C2.503 9.42845 2.75263 10.0103 3.26549 10.2153C3.77835 10.4202 4.36023 10.1705 4.56515 9.65768C4.59502 9.58292 4.626 9.50869 4.65806 9.43503Z" fill="#012635"/>
<path d="M4.00091 12.4812C4.00922 11.929 3.5683 11.4746 3.01608 11.4663C2.46385 11.458 2.00945 11.8989 2.00114 12.4511C2.00038 12.5015 2 12.552 2 12.6025C2 12.6439 2.00026 12.6851 2.00077 12.7264C2.00764 13.2786 2.46089 13.7207 3.01313 13.7138C3.56537 13.707 4.00748 13.2537 4.00062 12.7015C4.00021 12.6686 4 12.6356 4 12.6025C4 12.562 4.00031 12.5216 4.00091 12.4812Z" fill="#012635"/>
<path d="M4.38371 15.0302C4.21313 14.5049 3.64902 14.2173 3.12374 14.3879C2.59846 14.5585 2.31091 15.1226 2.48149 15.6479C2.50702 15.7265 2.53349 15.8047 2.5609 15.8824C2.74457 16.4032 3.3157 16.6766 3.83655 16.4929C4.3574 16.3093 4.63074 15.7381 4.44707 15.2173C4.42519 15.1552 4.40407 15.0929 4.38371 15.0302Z" fill="#012635"/>
<path d="M5.55564 17.3094C5.22875 16.8642 4.60289 16.7683 4.15773 17.0952C3.71257 17.4221 3.61669 18.048 3.94358 18.4931C3.96791 18.5263 3.99243 18.5592 4.01715 18.5921C4.34936 19.0333 4.97633 19.1216 5.41753 18.7894C5.85872 18.4572 5.94707 17.8302 5.61485 17.389C5.59496 17.3626 5.57522 17.336 5.55564 17.3094Z" fill="#012635"/>
<path d="M13.2811 7.75568C13.2811 7.20339 12.8334 6.75568 12.2811 6.75568C11.7288 6.75568 11.2811 7.20339 11.2811 7.75568V12.7384L8.81986 14.2105C8.34588 14.494 8.19146 15.108 8.47495 15.582C8.75844 16.056 9.37249 16.2104 9.84646 15.9269L12.7944 14.1637C13.0963 13.9832 13.2811 13.6573 13.2811 13.3055V7.75568Z" fill="#012635"/>
</g>
</svg>
