<svg width="24" height="24" viewBox="0 0 24 24" fill="none" xmlns="http://www.w3.org/2000/svg">
<path d="M19.4215 13.5805H16.8981C14.8288 13.5805 13.1436 15.2656 13.1436 17.335V19.8583C13.1436 20.3385 12.7507 20.7314 12.2705 20.7314H8.56842C5.87918 20.7314 3.70508 18.9852 3.70508 15.8681V8.13215C3.70508 5.01506 5.87918 3.2688 8.56842 3.2688H15.4312C18.1205 3.2688 20.2946 5.01506 20.2946 8.13215V12.7074C20.2946 13.1876 19.9017 13.5805 19.4215 13.5805Z" fill="#012635"/>
<path opacity="0.5" d="M15.3178 20.5476C14.9598 20.9056 14.3398 20.6611 14.3398 20.1635V17.1162C14.3398 15.8415 15.4225 14.785 16.741 14.785C17.5704 14.7762 18.723 14.7762 19.7096 14.7762C20.2073 14.7762 20.4692 15.3612 20.12 15.7105C18.8627 16.9765 16.61 19.2554 15.3178 20.5476Z" fill="#012635"/>
</svg>
