<svg width="24" height="24" viewBox="0 0 24 24" fill="none" xmlns="http://www.w3.org/2000/svg">
<circle opacity="0.5" cx="12" cy="7" r="3" fill="#012635"/>
<path d="M4 17.0688C4.49785 12.9725 6.43452 12 12 12C13.0254 12 13.9276 12.033 14.7203 12.1125L14.7847 19.6868C13.8902 19.8917 12.958 20 12 20C8.94023 20 6.14321 18.8949 4 17.0688Z" fill="#012635"/>
<path opacity="0.5" d="M19.9119 19.4174C19.5283 19.8147 18.8952 19.8257 18.4979 19.4421C18.1007 19.0584 18.0896 18.4253 18.4733 18.0281L19.6242 16.8363L16.3821 16.8928C15.8299 16.9025 15.3744 16.4626 15.3648 15.9104C15.3551 15.3582 15.795 14.9028 16.3472 14.8931L19.4889 14.8383L18.3992 13.7861C18.0019 13.4024 17.9909 12.7693 18.3745 12.3721C18.7582 11.9748 19.3913 11.9637 19.7885 12.3474L22.6659 15.126C23.0632 15.5097 23.0742 16.1427 22.6906 16.54L19.9119 19.4174Z" fill="#012635"/>
</svg>
