<svg width="24" height="24" viewBox="0 0 24 24" fill="none" xmlns="http://www.w3.org/2000/svg">
<path d="M18.4891 17.4148C19.2221 18.1479 19.1714 19.3739 18.2905 19.9206C14.7416 22.1236 12.1272 20.9544 7.5864 16.4132C3.04556 11.872 1.87652 9.25736 4.07927 5.70814C4.62598 4.82726 5.85184 4.77647 6.58488 5.50958L8.82405 7.74894C9.50758 8.43253 9.44999 9.50296 8.92657 10.3157C8.14692 11.5263 8.5253 12.4012 10.0617 13.9377C11.5981 15.4742 12.4729 15.8526 13.6834 15.0729C14.4961 14.5495 15.5664 14.4919 16.2499 15.1755L18.4891 17.4148Z" fill="#012635"/>
<circle opacity="0.5" cx="16.5" cy="7.5" r="4.5" fill="#012635"/>
<rect x="16" y="7" width="1" height="3" fill="#012635"/>
<rect x="16" y="5" width="1" height="1" fill="#012635"/>
</svg>
