<svg width="24" height="24" viewBox="0 0 24 24" fill="none" xmlns="http://www.w3.org/2000/svg">
<rect width="24" height="24" fill="#012635"/>
<path opacity="0.5" d="M20.3309 9.66507H19.6291C19.3482 9.66507 19.0982 9.49223 18.9952 9.23113C18.9661 9.15706 18.9359 9.08422 18.9044 9.01138C18.7927 8.75398 18.847 8.45461 19.0458 8.25585L19.5421 7.75957C20.1933 7.10835 20.1933 6.05222 19.5421 5.40038L18.5989 4.4572C17.9477 3.80599 16.8915 3.80599 16.2397 4.4572L15.7434 4.95348C15.5446 5.15224 15.2459 5.20656 14.9879 5.09484C14.915 5.06336 14.8422 5.03311 14.7681 5.0041C14.507 4.90102 14.3342 4.65102 14.3342 4.37017V3.66834C14.3342 2.74738 13.5873 2.00049 12.6663 2.00049H11.3324C10.4115 2.00049 9.66458 2.74738 9.66458 3.66834V4.37017C9.66458 4.65102 9.49174 4.90102 9.23064 5.0041C9.15657 5.03311 9.08373 5.06336 9.01089 5.09484C8.7535 5.20656 8.45412 5.15224 8.25536 4.95348L7.75908 4.4572C7.10787 3.80599 6.05173 3.80599 5.39989 4.4572L4.45671 5.40038C3.8055 6.0516 3.8055 7.10774 4.45671 7.75957L4.953 8.25585C5.15175 8.45461 5.20607 8.75337 5.09435 9.01138C5.06287 9.08422 5.03262 9.15706 5.00361 9.23113C4.90053 9.49223 4.65054 9.66507 4.36968 9.66507H3.66785C2.74689 9.66507 2 10.412 2 11.3329V12.6668C2 13.5878 2.74689 14.3347 3.66785 14.3347H4.36968C4.65054 14.3347 4.90053 14.5075 5.00361 14.7686C5.03262 14.8427 5.06287 14.9155 5.09435 14.9884C5.20607 15.2458 5.15175 15.5451 4.953 15.7439L4.45671 16.2402C3.8055 16.8914 3.8055 17.9475 4.45671 18.5994L5.39989 19.5425C6.05111 20.1938 7.10725 20.1938 7.75908 19.5425L8.25536 19.0463C8.45412 18.8475 8.75288 18.7932 9.01089 18.9049C9.08373 18.9364 9.15657 18.9666 9.23064 18.9956C9.49174 19.0987 9.66458 19.3487 9.66458 19.6296V20.3314C9.66458 21.2524 10.4115 21.9993 11.3324 21.9993H12.6663C13.5873 21.9993 14.3342 21.2524 14.3342 20.3314V19.6296C14.3342 19.3487 14.507 19.0987 14.7681 18.9956C14.8422 18.9666 14.915 18.9364 14.9879 18.9049C15.2453 18.7932 15.5446 18.8475 15.7434 19.0463L16.2397 19.5425C16.8909 20.1938 17.947 20.1938 18.5989 19.5425L19.5421 18.5994C20.1933 17.9481 20.1933 16.892 19.5421 16.2402L19.0458 15.7439C18.847 15.5451 18.7927 15.2464 18.9044 14.9884C18.9359 14.9155 18.9661 14.8427 18.9952 14.7686C19.0982 14.5075 19.3482 14.3347 19.6291 14.3347H20.3309C21.2519 14.3347 21.9988 13.5878 21.9988 12.6668V11.3329C21.9988 10.412 21.2519 9.66507 20.3309 9.66507V9.66507Z" fill="white"/>
<circle cx="12" cy="12" r="3.75" fill="white"/>
</svg>
