<svg width="24" height="24" viewBox="0 0 24 24" fill="none" xmlns="http://www.w3.org/2000/svg">
<rect width="24" height="24" fill="#012635"/>
<path fill-rule="evenodd" clip-rule="evenodd" d="M9.42773 8.64783C9.42732 4.05389 13.0821 2.59222 15.5354 2.64441C18.2232 2.64441 22.4783 5.51561 20.5467 11.5712C20.0991 13.0968 19.1362 14.0623 18.2399 14.961C17.4492 15.7539 16.7102 16.4948 16.4226 17.5225C15.809 19.715 14.2823 20.8113 12.5073 20.4981C10.7324 20.1849 9.42773 19.5062 9.42773 15.3299V8.64783ZM13.521 8.51314C13.521 7.80784 13.7653 7.38996 14.0627 7.13684C14.3798 6.86702 14.8338 6.72119 15.3294 6.72119C16.1359 6.72119 16.9245 7.44091 16.9245 8.51314C16.9245 8.92735 17.2603 9.26314 17.6745 9.26314C18.0887 9.26314 18.4245 8.92735 18.4245 8.51314C18.4245 6.69905 17.0484 5.22119 15.3294 5.22119C14.5622 5.22119 13.737 5.44435 13.0906 5.99452C12.4245 6.56139 12.021 7.41448 12.021 8.51314V8.52159V8.53002V8.53843V8.54683V8.55521V8.56357V8.57192V8.58025V8.58856V8.59686V8.60514V8.61341V8.62165V8.62988V8.6381V8.64629V8.65448V8.66264V8.67079V8.67892V8.68703V8.69513V8.70321V8.71127V8.71932V8.72735V8.73537V8.74337V8.75135V8.75931V8.76726V8.7752V8.78311V8.79101V8.79889V8.80676V8.81461V8.82244V8.83026V8.83806V8.84585V8.85361V8.86136V8.8691V8.87682V8.88452V8.89221V8.89988V8.90753V8.91517V8.92279V8.93039V8.93798V8.94555V8.95311V8.96064V8.96817V8.97567V8.98316V8.99064V8.9981V9.00554V9.01296V9.02037V9.02777V9.03514V9.0425V9.04985V9.05717V9.06449V9.07178V9.07906V9.08633V9.09357V9.10081V9.10802V9.11522V9.1224V9.12957V9.13672V9.14386V9.15097V9.15808V9.16516V9.17223V9.17929V9.18633V9.19335V9.20036V9.20735V9.21432V9.22128V9.22822V9.23515V9.24206V9.24896V9.25584V9.2627V9.26955V9.27638V9.28319V9.28999V9.29678V9.30354V9.3103V9.31703V9.32375V9.33046V9.33715V9.34382V9.35048V9.35712V9.36374V9.37035V9.37695V9.38353V9.39009V9.39663V9.40317V9.40968V9.41618V9.42266V9.42913V9.43559V9.44202V9.44844V9.45485V9.46124V9.46761V9.47397V9.48031V9.48664V9.49295V9.49925V9.50553V9.5118V9.51804V9.52428V9.5305V9.5367V9.54289V9.54906V9.55521V9.56136V9.56748V9.57359V9.57968V9.58576V9.59183V9.59787V9.60391V9.60992V9.61592V9.62191V9.62788V9.63384V9.63978V9.6457V9.65161V9.6575V9.66338V9.66925V9.67509V9.68093V9.68674V9.69254V9.69833V9.7041V9.70986V9.7156V9.72132V9.72703V9.73273V9.73841V9.74407V9.74972V9.75536V9.76097V9.76658V9.77217V9.77774V9.7833V9.78884V9.79437V9.79988V9.80538V9.81086V9.81633V9.82178V9.82721V9.83264V9.83804V9.84343V9.84881V9.85417V9.85952V9.86485V9.87017V9.87547V9.88075V9.88603V9.89128V9.89652V9.90175V9.90696V9.91216V9.91734V9.9225V9.92766V9.93279V9.93791V9.94302V9.94811V9.95319V9.95825V9.9633V9.96833V9.97335V9.97835V9.98334V9.98831V9.99327V9.99821V10.0031V10.0081V10.013V10.0178V10.0227V10.0276V10.0324V10.0372V10.042V10.0468V10.0516V10.0564V10.0611V10.0659V10.0706V10.0753V10.08V10.0847V10.0893V10.094V10.0986V10.1032V10.1078V10.1124V10.117V10.1216V10.1261V10.1307V10.1352V10.1397V10.1442V10.1486V10.1531V10.1575V10.162V10.1664V10.1708V10.1752V10.1795V10.1839V10.1882V10.1926V10.1969V10.2012V10.2055V10.2097V10.214V10.2182V10.2225V10.2267V10.2309V10.2351V10.2392V10.2434V10.2475V10.2517V10.2558V10.2599V10.264V10.268V10.2721V10.2761V10.2802V10.2842V10.2882V10.2922V10.2961V10.3001V10.304V10.308V10.3119V10.3158V10.3197V10.3235V10.3274V10.3312V10.3351V10.3389V10.3427V10.3465V10.3502V10.354V10.3577V10.3615V10.3652V10.3689V10.3726V10.3763V10.3799V10.3836V10.3872V10.3908V10.3944V10.398V10.4016V10.4051V10.4087V10.4122V10.4157V10.4193V10.4227V10.4262V10.4297V10.4331V10.4366V10.44V10.4434V10.4468V10.4502V10.4536V10.4569V10.4602V10.4636V10.4669V10.4702V10.4735V10.4767V10.48V10.4832V10.4865V10.4897V10.4929V10.4961V10.4993V10.5024V10.5056V10.5087V10.5118V10.5149V10.518V10.5211V10.5242V10.5272V10.5302V10.5333V10.5363V10.5393V10.5423V10.5452V10.5482V10.5511V10.5541V10.557V10.5599V10.5628V10.5656V10.5685V10.5714V10.5742V10.577V10.5798V10.5826V10.5854V10.5882V10.5909V10.5937V10.5964V10.5991V10.6018V10.6045V10.6072V10.6098V10.6125V10.6151V10.6177V10.6203V10.6229V10.6255V10.6281V10.6306V10.6331V10.6357V10.6382V10.6407V10.6432V10.6456V10.6481V10.6506V10.653V10.6554V10.6578V10.6602V10.6626V10.665V10.6673V10.6697V10.672V10.6743V10.6766V10.6789V10.6812V10.6834V10.6857V10.6879V10.6901V10.6923V10.6945V10.6967V10.6989V10.701V10.7032V10.7053V10.7074V10.7095V10.7116V10.7137V10.7158V10.7178V10.7199V10.7219V10.7239V10.7259V10.7279V10.7299V10.7319V10.7338V10.7357V10.7377V10.7396V10.7415V10.7434V10.7452V10.7471V10.7489V10.7508V10.7526V10.7544V10.7562V10.758V10.7598V10.7615V10.7633V10.765V10.7667V10.7684V10.7701V10.7718V10.7735V10.7751V10.7768V10.7784V10.78V10.7816V10.7832V10.7848V10.7863V10.7879V10.7894V10.791V10.7925V10.794V10.7955V10.797V10.7984V10.7999V10.8013V10.8027V10.8042V10.8056V10.8069V10.8083V10.8097V10.811V10.8124V10.8137V10.815V10.8163V10.8176V10.8189V10.8202V10.8214V10.8227V10.8239V10.8251V10.8263V10.8275V10.8287V10.8298V10.831V10.8321V10.8333V10.8344V10.8355V10.8366V10.8377V10.8387V10.8398V10.8408V10.8419C12.021 11.2464 12.3417 11.578 12.746 11.5914C12.8309 11.5943 13.0699 11.6517 13.2763 11.8204C13.4523 11.9642 13.6118 12.1916 13.6118 12.5966C13.6118 12.8151 13.5156 12.9685 13.3269 13.1045C13.1171 13.2556 12.8436 13.339 12.6714 13.3621C12.299 13.412 12.021 13.7297 12.021 14.1054V15.4174C12.021 15.8316 12.3568 16.1674 12.771 16.1674C13.1852 16.1674 13.521 15.8316 13.521 15.4174V14.6824C13.747 14.5979 13.9834 14.4802 14.2036 14.3216C14.6777 13.9801 15.1118 13.4147 15.1118 12.5966C15.1118 11.7061 14.7218 11.0644 14.2254 10.6588C14.0025 10.4767 13.759 10.3423 13.521 10.2501V10.2475V10.2434V10.2392V10.2351V10.2309V10.2267V10.2225V10.2182V10.214V10.2097V10.2055V10.2012V10.1969V10.1926V10.1882V10.1839V10.1795V10.1752V10.1708V10.1664V10.162V10.1575V10.1531V10.1486V10.1442V10.1397V10.1352V10.1307V10.1261V10.1216V10.117V10.1124V10.1078V10.1032V10.0986V10.094V10.0893V10.0847V10.08V10.0753V10.0706V10.0659V10.0611V10.0564V10.0516V10.0468V10.042V10.0372V10.0324V10.0276V10.0227V10.0178V10.013V10.0081V10.0031V9.99821V9.99327V9.98831V9.98334V9.97835V9.97335V9.96833V9.9633V9.95825V9.95319V9.94811V9.94302V9.93791V9.93279V9.92766V9.9225V9.91734V9.91216V9.90696V9.90175V9.89652V9.89128V9.88603V9.88075V9.87547V9.87017V9.86485V9.85952V9.85417V9.84881V9.84343V9.83804V9.83264V9.82721V9.82178V9.81633V9.81086V9.80538V9.79988V9.79437V9.78884V9.7833V9.77774V9.77217V9.76658V9.76097V9.75536V9.74972V9.74407V9.73841V9.73273V9.72703V9.72132V9.7156V9.70986V9.7041V9.69833V9.69254V9.68674V9.68093V9.67509V9.66925V9.66338V9.6575V9.65161V9.6457V9.63978V9.63384V9.62788V9.62191V9.61592V9.60992V9.60391V9.59787V9.59183V9.58576V9.57968V9.57359V9.56748V9.56136V9.55521V9.54906V9.54289V9.5367V9.5305V9.52428V9.51804V9.5118V9.50553V9.49925V9.49295V9.48664V9.48031V9.47397V9.46761V9.46124V9.45485V9.44844V9.44202V9.43559V9.42913V9.42266V9.41618V9.40968V9.40317V9.39663V9.39009V9.38353V9.37695V9.37035V9.36374V9.35712V9.35048V9.34382V9.33715V9.33046V9.32375V9.31703V9.3103V9.30354V9.29678V9.28999V9.28319V9.27638V9.26955V9.2627V9.25584V9.24896V9.24206V9.23515V9.22822V9.22128V9.21432V9.20735V9.20036V9.19335V9.18633V9.17929V9.17223V9.16516V9.15808V9.15097V9.14386V9.13672V9.12957V9.1224V9.11522V9.10802V9.10081V9.09357V9.08633V9.07906V9.07178V9.06449V9.05717V9.04985V9.0425V9.03514V9.02777V9.02037V9.01296V9.00554V8.9981V8.99064V8.98316V8.97567V8.96817V8.96064V8.95311V8.94555V8.93798V8.93039V8.92279V8.91517V8.90753V8.89988V8.89221V8.88452V8.87682V8.8691V8.86136V8.85361V8.84585V8.83806V8.83026V8.82244V8.81461V8.80676V8.79889V8.79101V8.78311V8.7752V8.76726V8.75931V8.75135V8.74337V8.73537V8.72735V8.71932V8.71127V8.70321V8.69513V8.68703V8.67892V8.67079V8.66264V8.65448V8.64629V8.6381V8.62988V8.62165V8.61341V8.60514V8.59686V8.58856V8.58025V8.57192V8.56357V8.55521V8.54683V8.53843V8.53002V8.52159V8.51314Z" fill="white"/>
<path opacity="0.5" d="M4.60156 7.49219C6.2834 8.3216 7.44041 10.0534 7.44041 12.0555C7.44041 14.0575 6.2834 15.7893 4.60156 16.6187" stroke="white" stroke-width="2" stroke-linecap="round"/>
<path opacity="0.5" d="M2.79297 9.79883C3.71697 10.2089 4.35262 11.0653 4.35262 12.0552C4.35262 13.0452 3.71697 13.9015 2.79297 14.3116" stroke="white" stroke-width="2" stroke-linecap="round"/>
</svg>
