<svg width="24" height="24" viewBox="0 0 24 24" fill="none" xmlns="http://www.w3.org/2000/svg">
<rect width="24" height="24" fill="#012635"/>
<path opacity="0.5" d="M18.5622 16.8035C18.2161 18.5625 16.9179 20.0037 15.1942 20.3985C15.0783 20.4276 15.0062 20.4525 14.9412 20.4762L14.9108 20.4875C14.8434 20.5127 14.7278 20.5559 14.6026 20.589C14.4785 20.6218 14.3469 20.6454 14.1954 20.6619C13.9202 20.9864 13.5096 21.1924 13.0508 21.1924H12.0508C11.2224 21.1924 10.5508 20.5208 10.5508 19.6924C10.5508 18.864 11.2224 18.1924 12.0508 18.1924H13.0508C13.4718 18.1924 13.8524 18.3659 14.1248 18.6453C14.137 18.6411 14.1528 18.6352 14.1785 18.6257L14.2547 18.5977C14.3687 18.5561 14.5129 18.5069 14.7207 18.4553L14.7311 18.4527L14.7415 18.4504C15.633 18.2489 16.3946 17.4712 16.6009 16.412L16.6027 16.4029L16.6047 16.3938C16.7322 15.7986 16.8334 14.2988 16.8334 12.627H18.8334C18.8334 14.2955 18.7372 15.9778 18.5622 16.8035Z" fill="white"/>
<path d="M7.16602 10.2536C7.16611 10.2591 7.16615 10.2647 7.16615 10.2702V15.7684C7.16615 16.3207 6.71843 16.7684 6.16615 16.7684H5.01832C3.38155 16.7684 2.05469 15.4415 2.05469 13.8047V12.2338C2.05469 10.5971 3.38155 9.2702 5.01832 9.2702H5.17594C5.36883 5.6686 8.35031 2.80762 12 2.80762C15.6497 2.80762 18.6312 5.6686 18.8241 9.2702H18.9817C20.6184 9.2702 21.9453 10.5971 21.9453 12.2338V13.8047C21.9453 15.4415 20.6184 16.7684 18.9817 16.7684H17.8338C17.2816 16.7684 16.8338 16.3207 16.8338 15.7684V10.2702C16.8338 10.2643 16.8339 10.2584 16.834 10.2526V9.64161C16.834 6.97187 14.6697 4.80762 12 4.80762C9.33027 4.80762 7.16602 6.97187 7.16602 9.64161V10.2536Z" fill="white"/>
</svg>
