<svg width="24" height="24" viewBox="0 0 24 24" fill="none" xmlns="http://www.w3.org/2000/svg">
<rect width="24" height="24" transform="translate(24 24) rotate(-180)" fill="#012635"/>
<path d="M20.4179 11.9989C21.4546 11.9989 22.2856 12.9017 22.0494 13.9112C21.0976 17.9783 18.4223 19.0003 12.0003 19C5.57829 18.9997 2.90284 17.9775 1.95075 13.9103C1.71444 12.9008 2.54534 11.9981 3.58208 11.9982L6.74887 11.9983C7.71557 11.9983 8.43175 12.796 8.63634 13.7408C8.94109 15.1481 9.82725 15.4992 12.0001 15.4993C14.173 15.4994 15.0591 15.1484 15.3638 13.7411C15.5683 12.7963 16.2844 11.9987 17.2511 11.9987L20.4179 11.9989Z" fill="white"/>
<g opacity="0.5">
<path d="M8.46491 7.0012C8.07439 7.39173 8.07439 8.02489 8.46491 8.41542C8.85544 8.80594 9.4886 8.80594 9.87912 8.41542L11.0507 7.24388V10.4865C11.0507 11.0388 11.4984 11.4865 12.0507 11.4865C12.6029 11.4865 13.0507 11.0388 13.0507 10.4865L13.0507 7.34431L14.1218 8.41542C14.5123 8.80594 15.1455 8.80594 15.536 8.41542C15.9265 8.02489 15.9265 7.39173 15.536 7.0012L12.7076 4.17278C12.317 3.78225 11.6839 3.78225 11.2933 4.17278L8.46491 7.0012Z" fill="white"/>
<path d="M1.03906 9.70097C1.03906 10.2533 1.48678 10.701 2.03906 10.701C2.59135 10.701 3.03906 10.2533 3.03906 9.70097V8.04417L5.33193 10.337C5.72245 10.7276 6.35562 10.7276 6.74614 10.337C7.13666 9.94651 7.13666 9.31334 6.74614 8.92282L4.52429 6.70097H6.03906C6.59135 6.70097 7.03906 6.25326 7.03906 5.70097C7.03906 5.14869 6.59135 4.70097 6.03906 4.70097H2.03906C1.48678 4.70097 1.03906 5.14869 1.03906 5.70097V9.70097Z" fill="white"/>
<path d="M22.0083 10.6832C22.5606 10.6832 23.0083 10.2355 23.0083 9.68321V5.68321C23.0083 5.13093 22.5606 4.68321 22.0083 4.68321H18.0083C17.456 4.68321 17.0083 5.13093 17.0083 5.68321C17.0083 6.2355 17.456 6.68321 18.0083 6.68321H19.5231L17.3013 8.90506C16.9107 9.29558 16.9107 9.92875 17.3013 10.3193C17.6918 10.7098 18.3249 10.7098 18.7155 10.3193L21.0083 8.02641V9.68321C21.0083 10.2355 21.456 10.6832 22.0083 10.6832Z" fill="white"/>
</g>
</svg>
