<svg width="24" height="24" viewBox="0 0 24 24" fill="none" xmlns="http://www.w3.org/2000/svg">
<rect width="24" height="24" fill="#012635"/>
<g opacity="0.5">
<path d="M14.914 7.37362C15.391 7.09525 15.5521 6.4829 15.2737 6.0059C14.9953 5.5289 14.383 5.36787 13.906 5.64624L7.08598 9.62624C6.60898 9.90461 6.44795 10.517 6.72632 10.994C7.00469 11.471 7.61703 11.632 8.09403 11.3536L14.914 7.37362Z" fill="white"/>
<path d="M8.09348 12.6459C7.61631 12.3679 7.00406 12.5293 6.726 13.0065C6.44794 13.4836 6.60935 14.0959 7.08653 14.3739L13.9165 18.3539C14.3937 18.632 15.006 18.4706 15.284 17.9934C15.5621 17.5162 15.4007 16.904 14.9235 16.6259L8.09348 12.6459Z" fill="white"/>
</g>
<path d="M17 2C16.2044 2 15.4413 2.31607 14.8787 2.87868C14.3161 3.44129 14 4.20435 14 5C14 5.79565 14.3161 6.55871 14.8787 7.12132C15.4413 7.68393 16.2044 8 17 8C17.7956 8 18.5587 7.68393 19.1213 7.12132C19.6839 6.55871 20 5.79565 20 5C20 4.20435 19.6839 3.44129 19.1213 2.87868C18.5587 2.31607 17.7956 2 17 2Z" fill="white"/>
<path d="M5 9C4.20435 9 3.44129 9.31607 2.87868 9.87868C2.31607 10.4413 2 11.2044 2 12C2 12.7956 2.31607 13.5587 2.87868 14.1213C3.44129 14.6839 4.20435 15 5 15C5.79565 15 6.55871 14.6839 7.12132 14.1213C7.68393 13.5587 8 12.7956 8 12C8 11.2044 7.68393 10.4413 7.12132 9.87868C6.55871 9.31607 5.79565 9 5 9Z" fill="white"/>
<path d="M14.8787 16.8787C15.4413 16.3161 16.2044 16 17 16C17.7956 16 18.5587 16.3161 19.1213 16.8787C19.6839 17.4413 20 18.2043 20 19C20 19.7957 19.6839 20.5587 19.1213 21.1213C18.5587 21.6839 17.7956 22 17 22C16.2044 22 15.4413 21.6839 14.8787 21.1213C14.3161 20.5587 14 19.7957 14 19C14 18.2043 14.3161 17.4413 14.8787 16.8787Z" fill="white"/>
</svg>
