<svg width="24" height="24" viewBox="0 0 24 24" fill="none" xmlns="http://www.w3.org/2000/svg">
<rect width="24" height="24" fill="#012635"/>
<path d="M18.4891 17.4148C19.2221 18.1479 19.1714 19.3739 18.2905 19.9206C14.7416 22.1236 12.1272 20.9544 7.5864 16.4132C3.04556 11.872 1.87652 9.25736 4.07927 5.70814C4.62598 4.82726 5.85184 4.77647 6.58488 5.50958L8.82405 7.74894C9.50758 8.43253 9.44999 9.50296 8.92657 10.3157C8.14692 11.5263 8.5253 12.4012 10.0617 13.9377C11.5981 15.4742 12.4729 15.8526 13.6834 15.0729C14.4961 14.5495 15.5664 14.4919 16.2499 15.1755L18.4891 17.4148Z" fill="white"/>
<path opacity="0.5" d="M16.5 9.69976L18.6824 10.9275C19.0821 11.1525 19.5712 10.8198 19.466 10.3992L18.8875 8.09054L20.8175 6.53513C21.1699 6.25144 20.9806 5.71341 20.5178 5.67917L17.9777 5.47863L16.9838 3.29714C16.805 2.90095 16.195 2.90095 16.0162 3.29714L15.0223 5.47374L12.4822 5.67428C12.0194 5.70852 11.8301 6.24655 12.1825 6.53024L14.1125 8.08565L13.534 10.3943C13.4288 10.815 13.9179 11.1476 14.3176 10.9226L16.5 9.69976V9.69976Z" fill="white"/>
</svg>
