<svg width="24" height="24" viewBox="0 0 24 24" fill="none" xmlns="http://www.w3.org/2000/svg">
<rect width="24" height="24" fill="#012635"/>
<path d="M8.52498 11.285C8.83581 11.0985 9.19148 11 9.55397 11H14.446C14.8085 11 15.1642 11.0985 15.475 11.285L16.116 11.6696C18.5256 13.1154 20 15.7194 20 18.5295V19C20 20.1046 19.1046 21 18 21H6C4.89543 21 4 20.1046 4 19V18.5295C4 15.7194 5.47439 13.1154 7.88403 11.6696L8.52498 11.285Z" fill="white"/>
<rect opacity="0.5" x="8" y="8" width="8" height="2" rx="1" fill="white"/>
<path d="M7.70711 4.70711C7.07714 4.07714 7.52331 3 8.41421 3H15.5858C16.4767 3 16.9229 4.07714 16.2929 4.70711L14.2929 6.70711C14.1054 6.89464 13.851 7 13.5858 7H10.4142C10.149 7 9.89464 6.89464 9.70711 6.70711L7.70711 4.70711Z" fill="white"/>
</svg>
