<svg width="24" height="24" viewBox="0 0 24 24" fill="none" xmlns="http://www.w3.org/2000/svg">
<rect width="24" height="24" fill="#012635"/>
<path fill-rule="evenodd" clip-rule="evenodd" d="M13.5669 8.33996C13.0709 8.12284 12.5269 8.00138 11.9555 8.00138C11.3844 8.00138 10.8407 8.12267 10.345 8.33952C9.89939 8.53446 9.36219 8.50056 9.01869 8.15618L6.81786 5.94974C6.40776 5.5386 6.43079 4.86091 6.91233 4.53636C8.35308 3.56532 10.089 3 11.9555 3C13.8235 3 15.5609 3.5663 17.0023 4.54405C17.4823 4.86958 17.5037 5.54624 17.0936 5.9563L14.8922 8.1577C14.5486 8.5013 14.012 8.53482 13.5669 8.33996ZM15.6869 13.6832C15.904 13.1873 16.0254 12.6432 16.0254 12.0718C16.0254 11.489 15.9003 10.9375 15.6783 10.4378C15.4795 9.99022 15.5112 9.44835 15.858 9.10245L18.0499 6.9161C18.4611 6.506 19.1388 6.52901 19.4636 7.01035C20.4345 8.44887 20.9997 10.1784 20.9997 12.0447C20.9997 13.9202 20.4334 15.6589 19.4556 17.0954C19.13 17.5739 18.4548 17.5942 18.0455 17.185L15.8691 15.0086C15.5255 14.665 15.492 14.1284 15.6869 13.6832ZM12.0442 15.9986C11.4728 15.9986 10.9287 15.8772 10.4328 15.66C9.98763 15.4652 9.45105 15.4987 9.10745 15.8423L6.90605 18.0437C6.49599 18.4538 6.51741 19.1304 6.99734 19.456C8.43882 20.4337 10.1762 21 12.0442 21C13.9106 21 15.6466 20.4347 17.0873 19.4636C17.5689 19.1391 17.5919 18.4614 17.1818 18.0503L14.981 15.8438C14.6375 15.4994 14.1003 15.4655 13.6547 15.6605C13.159 15.8773 12.6153 15.9986 12.0442 15.9986ZM8.31282 10.3168C8.0957 10.8127 7.97425 11.3568 7.97425 11.9282C7.97425 12.511 8.09938 13.0625 8.32136 13.5622C8.52022 14.0098 8.48846 14.5516 8.14168 14.8975L5.94974 17.0839C5.5386 17.494 4.86089 17.471 4.53604 16.9897C3.5652 15.5511 3 13.8216 3 11.9553C3 10.0798 3.56631 8.34114 4.54406 6.9046C4.86973 6.42613 5.54489 6.40575 5.95415 6.81502L8.13057 8.99144C8.47417 9.33504 8.50769 9.87162 8.31282 10.3168Z" fill="white"/>
</svg>
