<svg width="24" height="24" viewBox="0 0 24 24" fill="none" xmlns="http://www.w3.org/2000/svg">
<rect width="24" height="24" fill="#012635"/>
<path fill-rule="evenodd" clip-rule="evenodd" d="M19.7071 4.29292C19.4211 4.00692 18.991 3.92137 18.6173 4.07615C18.2436 4.23093 18 4.59557 18 5.00003V6H16.9225C15.4036 6 13.967 6.69045 13.0182 7.87653L7.42011 14.8741C6.85079 15.5857 5.98885 16 5.0775 16H3C2.44772 16 2 16.4477 2 17C2 17.5523 2.44772 18 3 18H5.0775C6.59642 18 8.03298 17.3096 8.98184 16.1235L14.5799 9.12592C15.1492 8.41427 16.0111 8 16.9225 8H18V9.00003C18 9.40449 18.2436 9.76913 18.6173 9.92391C18.991 10.0787 19.4211 9.99313 19.7071 9.70714L21.7071 7.70714C22.0976 7.31661 22.0976 6.68345 21.7071 6.29292L19.7071 4.29292Z" fill="white"/>
<g opacity="0.5">
<path fill-rule="evenodd" clip-rule="evenodd" d="M16.9225 16C16.0111 16 15.1492 15.5857 14.5799 14.8741L8.98184 7.87652C8.03298 6.69045 6.59642 6 5.0775 6H3C2.44772 6 2 6.44772 2 7C2 7.55229 2.44772 8 3 8H5.0775C5.98885 8 6.85079 8.41427 7.42011 9.12592L13.0182 16.1235C13.967 17.3096 15.4036 18 16.9225 18H19C19.5523 18 20 17.5523 20 17C20 16.4477 19.5523 16 19 16H16.9225Z" fill="white"/>
<path d="M21 17L19 15V19L21 17Z" fill="white"/>
<path fill-rule="evenodd" clip-rule="evenodd" d="M18.6173 14.0761C18.991 13.9213 19.4211 14.0069 19.7071 14.2929L21.7071 16.2929C22.0976 16.6834 22.0976 17.3166 21.7071 17.7071L19.7071 19.7071C19.4211 19.9931 18.991 20.0787 18.6173 19.9239C18.2436 19.7691 18 19.4045 18 19V15C18 14.5955 18.2436 14.2309 18.6173 14.0761Z" fill="white"/>
</g>
</svg>
