<svg width="24" height="24" viewBox="0 0 24 24" fill="none" xmlns="http://www.w3.org/2000/svg">
<rect width="24" height="24" fill="#012635"/>
<path fill-rule="evenodd" clip-rule="evenodd" d="M8.70038 19.8308L4.17038 15.3008C3.22038 14.3508 2.71038 13.0408 2.77038 11.6908L3.01038 6.69078C3.11038 4.70078 4.70038 3.11078 6.70038 3.02078L11.7004 2.78078C13.0404 2.71078 14.3504 3.22078 15.3004 4.17078L19.8404 8.69078C21.7004 10.5608 21.7004 13.5808 19.8404 15.4408L15.4504 19.8308C13.5804 21.6908 10.5604 21.6908 8.70038 19.8308ZM12 9.50079C12 10.8815 10.8807 12.0008 9.5 12.0008C8.11929 12.0008 7 10.8815 7 9.50079C7 8.12008 8.11929 7.00079 9.5 7.00079C10.8807 7.00079 12 8.12008 12 9.50079Z" fill="white"/>
</svg>
